<svg xmlns="http://www.w3.org/2000/svg" width="50" height="50"><g transform="translate(0 -1)"><rect width="50" height="50" data-name="Rectangle 3198" rx="15" transform="translate(0 1)"/><path fill="#4d4d4d" d="M37.5 2.736A10.776 10.776 0 0 1 48.264 13.5v25A10.776 10.776 0 0 1 37.5 49.264h-25A10.776 10.776 0 0 1 1.736 38.5v-25A10.776 10.776 0 0 1 12.5 2.736h25M37.5 1h-25A12.5 12.5 0 0 0 0 13.5v25A12.5 12.5 0 0 0 12.5 51h25A12.5 12.5 0 0 0 50 38.5v-25A12.5 12.5 0 0 0 37.5 1Z" data-name="Path 57024"/><path fill="#fff" d="M19.444 32.424a.855.855 0 0 1-.357-.077.866.866 0 0 1-.434-1.147l2.807-6.224a.192.192 0 0 0 .011-.024l2.738-6.068a.9.9 0 0 1 1.581 0l5.556 12.317a.868.868 0 0 1-1.313 1.051l-7.432-5.587-2.368 5.248a.865.865 0 0 1-.791.511Zm3.89-7.381 5.04 3.788-3.373-7.48-1.666 3.692Z" data-name="Path 57025"/><path fill="#e00" d="M25 41.452A15.451 15.451 0 1 1 40.452 26 15.468 15.468 0 0 1 25 41.452Zm0-29.167A13.715 13.715 0 1 0 38.716 26 13.73 13.73 0 0 0 25 12.285Z" data-name="Path 57026"/></g></svg>